<?xml version="1.0" standalone="no"?>
<!DOCTYPE svg PUBLIC "-//W3C//DTD SVG 20010904//EN"
 "http://www.w3.org/TR/2001/REC-SVG-20010904/DTD/svg10.dtd">
<svg version="1.0" xmlns="http://www.w3.org/2000/svg"
 width="128.000000pt" height="128.000000pt" viewBox="0 0 128.000000 128.000000"
 preserveAspectRatio="xMidYMid meet">

<g transform="translate(0.000000,128.000000) scale(0.100000,-0.100000)"
fill="#000000" stroke="none">
<path d="M758 1243 c7 -3 16 -2 19 1 4 3 -2 6 -13 5 -11 0 -14 -3 -6 -6z"/>
<path d="M812 1222 c-8 -2 -12 -29 -12 -75 0 -40 -4 -78 -9 -86 -5 -7 -6 -22
-4 -32 13 -49 75 60 71 124 -2 43 -25 76 -46 69z"/>
<path d="M306 959 c-50 -8 -91 -31 -110 -61 -7 -12 -5 -32 8 -73 19 -61 34
-180 41 -320 2 -63 1 -78 -5 -50 -6 30 -7 20 -3 -35 4 -76 12 -98 32 -86 8 5
11 67 10 190 -2 237 -3 234 112 257 47 9 116 30 155 46 76 32 154 79 154 92 0
12 -65 29 -160 41 -96 11 -163 11 -234 -1z"/>
<path d="M570 182 c6 -13 14 -21 18 -18 3 4 -2 14 -12 24 -18 16 -18 16 -6 -6z"/>
<path d="M238 163 c29 -2 74 -2 100 0 26 2 2 3 -53 3 -55 0 -76 -1 -47 -3z"/>
<path d="M138 153 c6 -2 18 -2 25 0 6 3 1 5 -13 5 -14 0 -19 -2 -12 -5z"/>
<path d="M418 153 c7 -3 16 -2 19 1 4 3 -2 6 -13 5 -11 0 -14 -3 -6 -6z"/>
<path d="M61 132 c-110 -54 -30 -114 148 -110 l86 2 -80 5 -80 6 90 12 c129
17 275 25 250 14 -14 -7 -15 -10 -5 -10 20 -1 80 36 80 49 0 13 -38 37 -72 45
-18 5 -28 3 -28 -4 0 -11 -191 -8 -315 4 -24 2 -53 -3 -74 -13z"/>
<path d="M428 43 c7 -3 16 -2 19 1 4 3 -2 6 -13 5 -11 0 -14 -3 -6 -6z"/>
<path d="M368 33 c6 -2 18 -2 25 0 6 3 1 5 -13 5 -14 0 -19 -2 -12 -5z"/>
</g>
</svg>
